<?xml version="1.0" encoding="UTF-8"?>
<!DOCTYPE svg PUBLIC "-//W3C//DTD SVG 1.1//EN" "http://www.w3.org/Graphics/SVG/1.1/DTD/svg11.dtd">
<!-- Creator: CorelDRAW 2020 (64-Bit) -->
<svg xmlns="http://www.w3.org/2000/svg" xml:space="preserve" width="163.787mm" height="185.199mm" version="1.1" style="shape-rendering:geometricPrecision; text-rendering:geometricPrecision; image-rendering:optimizeQuality; fill-rule:evenodd; clip-rule:evenodd"
viewBox="0 0 9678.23 10943.53"
 xmlns:xlink="http://www.w3.org/1999/xlink"
 xmlns:xodm="http://www.corel.com/coreldraw/odm/2003">
 <defs>
  <style type="text/css">
   <![CDATA[
    .fil1 {fill:#FEFEFE;fill-rule:nonzero}
    .fil2 {fill:#6B1A1A;fill-rule:nonzero}
    .fil0 {fill:#F1C27D;fill-rule:nonzero}
   ]]>
  </style>
 </defs>
 <g id="Layer_x0020_1">
  <metadata id="CorelCorpID_0Corel-Layer"/>
  <ellipse class="fil0" cx="4310.17" cy="5537.59" rx="4082.13" ry="4990.1"/>
  <path class="fil1" d="M1544.84 5315.59c95.73,-10.22 192.65,-15.5 288.9,-15.5 190.2,0 380.4,20.11 566.32,59.99 282.44,70.79 540.81,217.01 746.95,422.56 3.07,3.27 4.81,7.62 4.81,12.13 0,4.51 -1.74,8.85 -4.84,12.12 -2.85,2.98 -6.81,4.67 -10.94,4.69l-17.59 0c-76.42,3.67 -153.79,5.88 -230.61,5.88 -76.82,0 -154.18,-2.21 -230.45,-6.08 -118.93,-3.95 -238.21,-20.26 -353.91,-47.51 -121.62,-31.05 -240.04,-75.98 -351.74,-132.88 -145.63,-71.36 -281.17,-163.92 -400.6,-273.64l-13.68 -12.12c-3,-3.13 -4.66,-7.33 -4.66,-11.68 0,-4.35 1.65,-8.54 4.61,-11.72 1.84,-2.74 4.41,-4.91 7.42,-6.26l-0.01 0.01z"/>
  <path class="fil2" d="M1547.97 4687.09c351.78,0.6 703.06,39.43 1046.95,112.77 177.12,26.66 350.25,79.49 512.14,156.16 165.93,82.75 308.36,206.75 413.24,359.6 0.98,1.71 1.53,3.71 1.53,5.74 0,3.81 -1.92,7.37 -5.1,9.47 -1.54,0.69 -3.2,1.03 -4.89,1.03 -1.68,0 -3.35,-0.35 -4.89,-1.03l-953.31 -372.49c-328.19,-107.04 -665.13,-192.84 -1005.63,-252.71 -5.05,-0.49 -8.78,-4.78 -8.78,-9.84 0,-0.56 0.05,-1.12 0.14,-1.67 1.45,-3.68 4.7,-6.35 8.6,-7.03l-0.01 -0.01z"/>
  <path class="fil1" d="M6896.48 5354.67c-119.33,109.71 -254.57,202.2 -400.14,273.64 -111.86,56.55 -230.44,101.52 -351.97,132.91 -115.94,27.09 -235.03,43.46 -354.12,47.72 -76.32,3.57 -153.68,5.78 -230.5,5.78 -76.81,0 -154.18,-2.21 -230.44,-6.08l-17.59 0c-9.14,-0.21 -16.2,-7.61 -16.2,-16.59 0,-0.27 0.01,-0.54 0.02,-0.8 0.31,-4.18 1.95,-8.15 4.69,-11.33 206.23,-205.68 464.87,-351.83 747.34,-422.55 182.74,-38.38 370.09,-58.13 557.11,-58.13 98.78,0 198.54,5.93 296.66,16.46 8.17,0.82 14.45,7.84 14.45,16.2 0,0.69 -0.04,1.38 -0.13,2.06 -0.36,4.09 -2.33,7.89 -5.47,10.55l-13.69 10.16z"/>
  <path class="fil2" d="M6899.61 4707.81c-340.21,59.59 -677.81,144.66 -1005.55,252.11l-953.3 372.49c-1.41,0.88 -2.77,1.14 -4.14,1.14 -4.37,0 -8.33,-2.61 -10.06,-6.62 -0.67,-1.61 -1.01,-3.34 -1.01,-5.08 0,-1.74 0.34,-3.47 1.01,-5.08 104.59,-152.31 246.52,-276.17 411.61,-359.18 162.06,-76.52 334.97,-129.66 512.37,-156.45 343.65,-73.09 695.14,-111.88 1046.62,-112.49 0.11,0.02 0.11,0.02 0.11,0.02 5.61,0 10.16,4.55 10.16,10.16 0,0.13 0,0.26 -0.01,0.39 -0.65,4.17 -3.73,7.55 -7.82,8.6l-0.01 0z"/>
  <path class="fil2" d="M228.43 5537.6c-77.16,-237.72 -136.55,-483.76 -176.54,-730.41 -34.5,-146.05 -51.89,-295.92 -51.89,-446.26 0,-222.53 38.36,-444.11 112.7,-653.78 117.26,-250.93 333.8,-424.08 439.33,-694.17 225.52,-576.91 148.52,-1255.05 521.41,-1774.89 447.89,-705.46 1223.34,-1137.91 2059.22,-1148.19 1313.68,86.77 2899,-634.37 3917.97,951.74 1018.97,1586.11 946.27,1211.66 1280.07,2364.7 333.8,1153.03 277.12,1748.69 248.59,1840.16 -50.63,103.84 -113.64,201.78 -186.96,291.03 -73.33,89.24 -294.32,-949 -1738.15,-1035.38 -375.38,-12.54 -745.86,-95.8 -1090.29,-244.73 -498.35,-236.86 -837.61,-469.03 -1407.09,-393.99 -386.56,51.59 -773.9,101.62 -1159.29,162.99 -562.84,89.9 -1702.97,178.23 -2005.5,781.72 -338.3,673.16 -762.39,729.05 -763.56,729.44z"/>
  <path class="fil2" d="M992.56 4807.47c-69.38,208.73 -104.99,428.1 -104.99,648.22 0,319.9 74.96,635.55 218.37,921.36 396.33,980.67 2830.6,-259.53 2972.48,-259.53 141.88,0 537.82,-195.43 1471.97,377.18 934.15,572.61 2094.62,-713.71 2094.62,-713.71 0,0 134.84,-992.38 -117.26,-1082.67 -252.1,-90.29 864.19,312.68 864.19,312.68 22.81,382.97 37.93,774.03 37.93,1158.6 0,384.57 -15.12,775.63 -38.89,1158.04 -96.15,692.21 -1086.98,1960.94 -1086.98,2249.39 0,288.45 -2018.4,1498.16 -2990.85,1354.71 -972.46,-143.45 -2472.58,-288.06 -3151.89,-1383.64 -679.31,-1095.58 -1189,-3264.07 -934.16,-4011 254.84,-746.93 765.45,-729.64 765.45,-729.64z"/>
  <path class="fil2" d="M9656.73 895.76l-6.25 0c-377.45,128.94 -766.26,236.29 -1155.08,321.38 -146.77,28.91 -296.58,43.73 -446.1,43.73 -24.87,0 -50.31,-0.56 -74.9,-1.12 -73.62,-6.82 -146.86,-20.22 -218.34,-39.25 -33.05,-7.68 -64.88,-20.26 -94.25,-37.06l-136.41 -61.76c-200.62,-82.67 -415.9,-125.28 -633,-125.28 -8.32,0 -17.04,0.2 -25.16,0.2 26.58,-18.76 49.64,-42.21 78.17,-59.02 133.03,-80.95 286.19,-123.94 442.04,-123.94 36.55,0 73.2,2.39 109.44,7.06 31.79,3.1 64.24,4.77 96.33,4.77 176.8,0 350.37,-48.08 502,-138.86 176.13,-104.43 330.13,-242.9 453.06,-406.48 2.27,-2.88 3.52,-6.46 3.52,-10.16 0,-1.72 -0.27,-3.43 -0.8,-5.06 -2.14,-7.32 -8.87,-12.35 -16.5,-12.35 -1.55,0 -3.11,0.21 -4.6,0.63l-13.29 3.91c-227.48,68.01 -410.79,126.25 -570.26,160.64 -79.6,17.58 -161.18,26.51 -242.75,26.51 -51.23,0 -102.45,-3.57 -153.13,-10.44 -37.53,-3.8 -75.74,-5.84 -113.53,-5.84 -105.9,0 -211.4,15.23 -312.96,44.86 -126.58,44.1 -243.06,113.69 -342.01,204.07 -104.43,97.44 -186.16,217.07 -238.83,349.82 -140.23,23.71 -280.11,57.25 -415.79,99.94 -410.7,131.42 -789.8,349.12 -1110.77,637.65l-3.52 3.13c-3.68,3.39 -5.68,8.14 -5.68,13.09 0,10.15 8.23,18.37 18.37,18.37 2.44,0 4.87,-0.49 7.11,-1.44 369,-169.99 757.02,-299.33 1154.32,-382.9 167.72,-44.72 340.25,-67.35 513.53,-67.35 228.27,0 455.33,39.43 670.22,116.08 186.64,95.6 393.42,146.52 603.17,148.16 207.3,-8.97 412.48,-47.6 608.86,-114.22 388.56,-135.52 755.36,-328.17 1087.74,-570.13 4.77,-3.62 7.53,-9.16 7.53,-15.03 0,-1.82 -0.27,-3.63 -0.79,-5.37 -2.7,-6.87 -9.34,-11.39 -16.73,-11.39 -1.34,0 -2.68,0.15 -3.99,0.45z"/>
 </g>
</svg>
